<svg xmlns="http://www.w3.org/2000/svg" width="18" height="19" fill="none"><path fill="#EBE7DC" fill-rule="evenodd" d="M9.9 2.188H8.1c-2.672 0-4.008 0-4.944.68-.302.22-.568.486-.788.788-.68.936-.68 2.272-.68 4.944v1.8c0 2.672 0 4.008.68 4.944.22.302.486.568.788.788.936.68 2.272.68 4.944.68h1.8c2.672 0 4.008 0 4.944-.68.302-.22.568-.486.788-.788.68-.936.68-2.272.68-4.944V8.6c0-2.672 0-4.008-.68-4.944a3.562 3.562 0 0 0-.788-.788c-.936-.68-2.272-.68-4.944-.68ZM12 9.5a3 3 0 1 1-6 0 3 3 0 0 1 6 0Zm1.125-3.375a.75.75 0 1 0 0-1.5.75.75 0 0 0 0 1.5Z" clip-rule="evenodd"/></svg>