<svg xmlns="http://www.w3.org/2000/svg" width="50" height="50" fill="none"><g clip-path="url(#a)"><path fill="#FDD17C" d="M46.312 32.193h-.1V.486a.505.505 0 0 0-.132-.344.435.435 0 0 0-.32-.142H3.89a.435.435 0 0 0-.32.142.506.506 0 0 0-.131.344v31.707h-.126a3.169 3.169 0 0 0-2.318 1.036 3.684 3.684 0 0 0-.962 2.498v3.947a.553.553 0 0 0 .144.357.48.48 0 0 0 .332.155h1.623v9.328c0 .129.047.253.132.344.084.09.199.142.318.142h2.62c.12 0 .234-.051.319-.142a.506.506 0 0 0 .132-.344v-9.328H44v9.328c0 .129.048.253.132.344.085.09.2.142.32.142h2.619c.12 0 .234-.051.319-.142a.505.505 0 0 0 .132-.344v-9.328h1.623a.478.478 0 0 0 .33-.156.553.553 0 0 0 .143-.356v-3.92a3.711 3.711 0 0 0-.97-2.518 3.193 3.193 0 0 0-2.336-1.043ZM4.749 49.033H3.03v-8.667h1.72v8.667Zm41.871 0h-1.718v-8.667h1.718v8.667Zm-1.31-17.05H25.276V.972H45.31v31.01ZM4.34.972h20.035v31.01H4.34V.973Zm44.376 38.244H.934v-3.49c.001-.679.253-1.33.699-1.81a2.3 2.3 0 0 1 1.68-.752h42.999a2.32 2.32 0 0 1 1.699.76 2.7 2.7 0 0 1 .705 1.83v3.462ZM19.784 16.4a.506.506 0 0 1-.132.344.435.435 0 0 1-.319.142h-5.049a.435.435 0 0 1-.318-.142.505.505 0 0 1-.132-.344c0-.128.047-.252.132-.343a.435.435 0 0 1 .318-.142h5.05c.119 0 .233.05.318.142a.506.506 0 0 1 .132.343Zm10.083 0c0-.128.047-.252.132-.343a.435.435 0 0 1 .319-.142h5.048c.12 0 .234.05.319.142a.505.505 0 0 1 .132.343.505.505 0 0 1-.132.344.435.435 0 0 1-.319.142h-5.048a.435.435 0 0 1-.32-.142.506.506 0 0 1-.131-.344Z"/></g><defs><clipPath id="a"><path fill="#fff" d="M0 0h50v50H0z"/></clipPath></defs></svg>