<svg xmlns="http://www.w3.org/2000/svg" width="50" height="50" fill="none"><g clip-path="url(#a)"><path fill="#FDD17C" d="M48.472 24.052h-9.9c-.576 0-1.044.42-1.044.937v4.572c0 2.807 2.462 5.108 5.549 5.25v4.2c-.295 4.193-4.184 7.523-8.924 7.523-4.932 0-8.944-3.604-8.944-8.033v-3.688c3.97-.126 7.16-3.065 7.16-6.662v-5.978c0-.559-.507-1.013-1.129-1.013h-6.032v-9.217c1.18-.19 2.08-1.116 2.08-2.23 0-1.113-.9-2.04-2.08-2.229V4.557h.971c.39 0 .724-.25.794-.595l.629-3.108a.67.67 0 0 0-.175-.594.844.844 0 0 0-.619-.26h-3.95a.844.844 0 0 0-.62.26.671.671 0 0 0-.174.594l.629 3.108c.07.345.403.595.793.595h.832v2.927c-1.18.19-2.079 1.116-2.079 2.23 0 1.113.9 2.04 2.08 2.23v9.216h-6.031c-.622 0-1.128.455-1.128 1.013v5.978c0 3.597 3.187 6.536 7.158 6.662v3.714c-.016 4.417-4.021 8.007-8.943 8.007-4.932 0-8.944-3.603-8.944-8.033v-3.685c3.158-.073 5.703-2.401 5.703-5.255V24.99c0-.517-.468-.937-1.044-.937h-9.9c-.576 0-1.044.42-1.044.937v4.571c0 2.76 2.381 5.03 5.395 5.24v4.244h.02c.315 4.618 4.595 8.288 9.814 8.288 3.966 0 7.39-2.12 8.943-5.166v3.337c-1.18.19-2.079 1.116-2.079 2.23 0 1.25 1.132 2.266 2.524 2.266 1.392 0 2.524-1.017 2.524-2.267 0-1.113-.899-2.04-2.079-2.23v-3.339c1.553 3.047 4.977 5.17 8.945 5.17 5.218 0 9.499-3.671 9.813-8.289v-.006c.012-.178.02-.357.02-.538h-.02v-3.689c3.087-.143 5.55-2.443 5.55-5.25V24.99c0-.517-.468-.938-1.044-.938ZM6.001 34.02c-2.738 0-4.965-2-4.965-4.46v-4.57c0-.077.069-.139.153-.139h9.901c.085 0 .154.062.154.138v4.572c0 2.458-2.227 4.459-4.965 4.459h-.278ZM23.556 3.757 22.957.8h3.752l-.6 2.958h-2.553Zm-.427 5.957c0-.81.733-1.468 1.634-1.468.901 0 1.634.658 1.634 1.467 0 .81-.733 1.468-1.634 1.468-.9 0-1.634-.658-1.634-1.467Zm3.268 38.019c0 .809-.733 1.467-1.634 1.467-.9 0-1.634-.658-1.634-1.468 0-.809.733-1.467 1.634-1.467.901 0 1.634.658 1.634 1.468ZM24.944 34.02h-.36c-3.603 0-6.534-2.633-6.534-5.87v-5.977c0-.118.107-.214.238-.214H31.24c.131 0 .238.096.238.214v5.978c0 3.236-2.931 5.869-6.534 5.869Zm23.682-4.46c0 2.46-2.227 4.46-4.965 4.46h-.279c-2.737 0-4.965-2-4.965-4.46v-4.57c0-.077.07-.139.154-.139h9.901c.085 0 .154.062.154.138v4.572Z"/></g><defs><clipPath id="a"><path fill="#fff" d="M0 0h50v50H0z"/></clipPath></defs></svg>