<svg xmlns="http://www.w3.org/2000/svg" width="50" height="50" fill="none"><g fill="#FDD17C" clip-path="url(#a)"><path d="M48.86 50H.96a.692.692 0 0 1-.529-.263.993.993 0 0 1-.22-.633V35.818c.001-.185.05-.365.139-.516a.78.78 0 0 1 .36-.328 9.892 9.892 0 0 0 1.573-.928 7.368 7.368 0 0 1 2.812-1.354c1.49-.124 2.982.24 4.313 1.055a8.29 8.29 0 0 0 2.956 1.015 7.936 7.936 0 0 0 3.293-.806 9.015 9.015 0 0 1 3.859-.89c1.27.17 2.508.6 3.656 1.274 1.408.717 2.737 1.381 4.016.956.317-.122.626-.275.923-.458.337-.2.684-.374 1.04-.52 1.724-.653 3.414-.045 5.05.547 1.004.428 2.053.69 3.117.779 1.557-.145 3.073-.674 4.452-1.554.367-.196.733-.392 1.097-.575 2.565-1.284 4.716-1.307 6.387-.068a.861.861 0 0 1 .259.327c.061.133.094.283.094.436v14.894a.993.993 0 0 1-.22.633.692.692 0 0 1-.529.263ZM1.71 48.208h46.4V34.743c-1.197-.668-2.765-.526-4.667.427-.355.177-.71.367-1.067.558-1.55.99-3.258 1.572-5.011 1.706h-.071a11.114 11.114 0 0 1-3.53-.857c-1.48-.534-2.878-1.04-4.164-.553a6.549 6.549 0 0 0-.85.432 6.74 6.74 0 0 1-1.158.56c-1.784.598-3.421-.224-5.006-1.025a8.642 8.642 0 0 0-3.156-1.135 7.73 7.73 0 0 0-3.31.803 9.023 9.023 0 0 1-3.835.893 9.403 9.403 0 0 1-3.44-1.141c-1.09-.68-2.31-1.006-3.539-.944a6.256 6.256 0 0 0-2.295 1.142c-.418.282-.848.57-1.305.814l.003 11.785Z"/><path d="M26.178 37.211a.692.692 0 0 1-.53-.262.993.993 0 0 1-.218-.634V5.053a4.179 4.179 0 0 0-.498-1.737 3.354 3.354 0 0 0-1.137-1.233 3.407 3.407 0 0 0-3.158.228.638.638 0 0 1-.57.06.8.8 0 0 1-.44-.44 1.057 1.057 0 0 1-.05-.683.875.875 0 0 1 .367-.526 4.817 4.817 0 0 1 2.227-.703c.776-.043 1.55.11 2.273.45.701.435 1.298 1.08 1.732 1.87.435.791.692 1.702.748 2.646v31.33a.993.993 0 0 1-.218.633.692.692 0 0 1-.528.263Zm14.669-.777a.691.691 0 0 1-.53-.263.993.993 0 0 1-.219-.634V5.054a4.407 4.407 0 0 0-.52-1.722 3.576 3.576 0 0 0-1.121-1.246 3.403 3.403 0 0 0-3.152.225.631.631 0 0 1-.577.07.72.72 0 0 1-.26-.167.883.883 0 0 1-.186-.275 1.064 1.064 0 0 1-.048-.692.959.959 0 0 1 .145-.308.784.784 0 0 1 .234-.217 4.712 4.712 0 0 1 2.222-.715 4.598 4.598 0 0 1 2.268.462c.69.445 1.277 1.086 1.71 1.866.434.78.7 1.677.777 2.61l.006 30.591c0 .118-.019.235-.057.344a.928.928 0 0 1-.162.291.754.754 0 0 1-.243.194.643.643 0 0 1-.287.069Z"/><path d="M40.848 11.679h-14.67a.692.692 0 0 1-.528-.263.993.993 0 0 1-.22-.634c0-.237.08-.465.22-.633a.692.692 0 0 1 .529-.263h14.669c.198 0 .389.095.529.263s.219.396.219.633a.994.994 0 0 1-.22.634.692.692 0 0 1-.528.263Zm0 9.351h-14.67a.692.692 0 0 1-.528-.262.993.993 0 0 1-.22-.634c0-.238.08-.466.22-.634a.692.692 0 0 1 .529-.262h14.669c.198 0 .389.094.529.262s.219.396.219.634a.993.993 0 0 1-.22.634.692.692 0 0 1-.528.262Zm0 9.35h-14.67a.692.692 0 0 1-.528-.263.993.993 0 0 1-.22-.634c0-.237.08-.465.22-.633a.692.692 0 0 1 .529-.263h14.669c.198 0 .389.095.529.263s.219.396.219.633a.993.993 0 0 1-.22.634.692.692 0 0 1-.528.263Z"/></g><defs><clipPath id="a"><path fill="#fff" d="M0 0h50v50H0z"/></clipPath></defs></svg>