<svg xmlns="http://www.w3.org/2000/svg" width="18" height="19" fill="none"><path fill="#EBE7DC" d="M1.962 15.212a.937.937 0 1 0 1.326 1.326l-1.326-1.326ZM16.038 3.788a.938.938 0 0 0-1.326-1.326l1.326 1.326Zm-12.75 12.75 5.625-5.625-1.326-1.326-5.625 5.625 1.326 1.326Zm7.125-7.125 5.625-5.625-1.326-1.326-5.625 5.625 1.326 1.326Z"/><path fill="#EBE7DC" d="M4.653 2.188h-1.45c-.807 0-1.211 0-1.38.212a.562.562 0 0 0-.109.226c-.06.265.194.58.701 1.21l10.15 12.6c.133.164.199.246.286.298a.556.556 0 0 0 .09.043c.096.035.201.035.412.035h1.444c.808 0 1.212 0 1.38-.212a.56.56 0 0 0 .11-.226c.059-.265-.194-.58-.7-1.209L5.441 2.565c-.133-.165-.2-.247-.287-.299a.561.561 0 0 0-.09-.043c-.095-.035-.2-.035-.412-.035Z"/></svg>