<svg xmlns="http://www.w3.org/2000/svg" width="50" height="50" fill="none"><path fill="#FDD17C" d="m47.375 11.206-6.242-5.772a3.052 3.052 0 0 0-1.998-.794H10.881a2.99 2.99 0 0 0-.808.125c-.045 0-.1.03-.113.03-.435.165-.705.294-1.084.631-.224.208-6.108 5.648-6.32 5.868-1.106 1.07-1.218 2.855-.347 4.088 21.639 30.483 20.459 28.95 20.985 29.339a2.897 2.897 0 0 0 3.614.014c.566-.44-.94 1.553 20.985-29.353.977-1.352.649-3.196-.418-4.176Zm-7.41-4.853c.2.133 6.513 5.99 6.61 6.11H34.352l5.611-6.11Zm-1.737-.243-5.583 6.081-5.923-6.08h11.506Zm-7.333 6.353H19.106l5.895-6.051 5.894 6.051ZM23.28 6.11l-5.923 6.081-5.583-6.08H23.28Zm-19.704 6.2c.135-.125 6.31-5.859 6.469-5.949l5.604 6.103H3.434c.043-.051.085-.11.142-.154Zm-.227 2.198a1.667 1.667 0 0 1-.255-.559h13.724l5.675 27.53-19.144-26.97ZM25.61 43.713c-.371.231-.864.22-1.204 0l-6.143-29.765H31.74l-6.13 29.765Zm21.05-29.206h-.008l-19.136 26.97 5.675-27.528h13.723c-.05.198-.134.39-.255.558Z"/></svg>